<?xml version="1.0" encoding="UTF-8" standalone="no"?>
<svg
   width="16"
   height="16"
   version="1.1"
   id="svg2"
   sodipodi:docname="com.k0vcz.Artemis-symbolic.svg"
   inkscape:version="1.4.2 (ebf0e940d0, 2025-05-08)"
   xmlns:inkscape="http://www.inkscape.org/namespaces/inkscape"
   xmlns:sodipodi="http://sodipodi.sourceforge.net/DTD/sodipodi-0.dtd"
   xmlns="http://www.w3.org/2000/svg"
   xmlns:svg="http://www.w3.org/2000/svg">
  <defs
     id="defs2" />
  <sodipodi:namedview
     id="namedview2"
     pagecolor="#ffffff"
     bordercolor="#000000"
     borderopacity="0.25"
     inkscape:showpageshadow="2"
     inkscape:pageopacity="0.0"
     inkscape:pagecheckerboard="0"
     inkscape:deskcolor="#d1d1d1"
     inkscape:zoom="36.25"
     inkscape:cx="11.365517"
     inkscape:cy="3.3931034"
     inkscape:window-width="2098"
     inkscape:window-height="1269"
     inkscape:window-x="26"
     inkscape:window-y="23"
     inkscape:window-maximized="0"
     inkscape:current-layer="svg2" />
  <path
     id="path6"
     style="display:inline;fill:#2e3436;fill-opacity:1;stroke-width:0.265875;paint-order:markers stroke fill;enable-background:new"
     d="M 8 0 A 8 8 0 0 0 0 8 A 8 8 0 0 0 8 16 A 8 8 0 0 0 16 8 A 8 8 0 0 0 8 0 z M 6.5410156 1.9394531 L 8.0175781 4.8945312 L 7.640625 4.8945312 L 8.1347656 5.8828125 L 9.5898438 2.9746094 L 11.066406 5.9277344 L 10.689453 5.9277344 L 11.558594 7.6660156 L 11.037109 7.6660156 L 12.050781 9.6933594 L 10.025391 9.6933594 L 10.025391 12.388672 C 10.025391 12.48521 9.9481007 12.5625 9.8515625 12.5625 L 9.328125 12.5625 C 9.2315868 12.5625 9.1542969 12.48521 9.1542969 12.388672 L 9.1542969 9.6933594 L 7.1289062 9.6933594 L 7.6445312 8.6582031 L 6.9765625 8.6582031 L 6.9765625 11.355469 C 6.9765625 11.452007 6.8992725 11.529297 6.8027344 11.529297 L 6.2792969 11.529297 C 6.1827587 11.529297 6.1054688 11.452007 6.1054688 11.355469 L 6.1054688 8.6582031 L 4.0800781 8.6582031 L 5.09375 6.6328125 L 4.5722656 6.6328125 L 5.4414062 4.8945312 L 5.0644531 4.8945312 L 6.5410156 1.9394531 z M 8.15625 5.9277344 L 8.3242188 6.2617188 L 8.4902344 5.9277344 L 8.15625 5.9277344 z M 7.9882812 6.6328125 L 8.0625 6.78125 L 8.1367188 6.6328125 L 7.9882812 6.6328125 z " />
</svg>
