<?xml version="1.0" encoding="UTF-8"?>
<svg height="128px" viewBox="0 0 128 128" width="128px" xmlns="http://www.w3.org/2000/svg" xmlns:xlink="http://www.w3.org/1999/xlink">
    <linearGradient id="a" gradientTransform="matrix(0.585348 0 0 0.585347 109.510847 106.400869)" gradientUnits="userSpaceOnUse" x1="-77.750008" x2="-77.750008" y1="-2.499999" y2="-167.999985">
        <stop offset="0" stop-color="#c64600"/>
        <stop offset="1" stop-color="#f8e45c"/>
    </linearGradient>
    <linearGradient id="b" gradientTransform="matrix(0.285714 0 0 0.177004 -25.313097 207.43616)" gradientUnits="userSpaceOnUse" x1="88.595886" x2="536.595886" y1="-449.394012" y2="-449.394012">
        <stop offset="0"/>
        <stop offset="0.0357143" stop-color="#241f31"/>
        <stop offset="0.0713653"/>
        <stop offset="0.928571"/>
        <stop offset="0.964286" stop-color="#241f31"/>
        <stop offset="1"/>
    </linearGradient>
    <linearGradient id="c" gradientUnits="userSpaceOnUse" x1="99.42856166286" x2="125.02855960571" y1="106.90711387714" y2="106.90711387714">
        <stop offset="0.4"/>
        <stop offset="0.5" stop-color="#241f31"/>
        <stop offset="0.6"/>
    </linearGradient>
    <path d="m 114 56.5 c 0 27.613281 -22.386719 50 -50 50 s -50 -22.386719 -50 -50 s 22.386719 -50 50 -50 s 50 22.386719 50 50 z m 0 0" fill="#292928"/>
    <path d="m 64 8.0625 c -2.945312 0 -5.875 0.269531 -8.75 0.796875 h 17.5 c -2.875 -0.527344 -5.804688 -0.796875 -8.75 -0.796875 z m -11.066406 1.28125 c -1.558594 0.367188 -3.097656 0.808594 -4.613282 1.328125 h 31.363282 c -1.515625 -0.519531 -3.058594 -0.960937 -4.613282 -1.328125 z m -5.964844 1.8125 c -1.078125 0.40625 -2.140625 0.847656 -3.191406 1.332031 h 40.445312 c -1.046875 -0.484375 -2.113281 -0.925781 -3.1875 -1.332031 z m -4.214844 1.816406 c -0.863281 0.417969 -1.714844 0.867188 -2.550781 1.339844 h 47.597656 c -0.839843 -0.472656 -1.691406 -0.921875 -2.554687 -1.339844 z m -3.558594 1.925782 c -0.722656 0.425781 -1.429687 0.878906 -2.128906 1.34375 h 53.867188 c -0.699219 -0.464844 -1.40625 -0.917969 -2.125 -1.34375 z m -2.980468 1.929687 c -0.621094 0.429687 -1.230469 0.878906 -1.828125 1.34375 h 59.226562 c -0.597656 -0.464844 -1.207031 -0.914063 -1.824219 -1.34375 z m -2.570313 1.925781 c -0.542969 0.4375 -1.078125 0.886719 -1.597656 1.347656 h 22.097656 l 0.671875 -1.347656 z m 21.300781 0 l 0.671876 1.347656 h 40.339843 c -0.523437 -0.460937 -1.058593 -0.910156 -1.597656 -1.347656 z m -23.554687 1.933594 c -0.480469 0.4375 -0.953125 0.882812 -1.417969 1.34375 h 23.207032 l 0.671874 -1.34375 z m 24.519531 0 l 0.671875 1.34375 h 41.445313 c -0.464844 -0.460938 -0.9375 -0.90625 -1.417969 -1.34375 z m -26.519531 1.929688 c -0.429687 0.4375 -0.855469 0.886718 -1.265625 1.34375 h 24.089844 l 0.671875 -1.34375 z m 27.484375 0 l 0.671875 1.34375 h 42.332031 c -0.414062 -0.457032 -0.835937 -0.90625 -1.265625 -1.34375 z m -29.273438 1.929687 c -0.390624 0.4375 -0.769531 0.886719 -1.136718 1.34375 h 24.785156 l 0.671875 -1.34375 z m 30.238282 0 l 0.671875 1.34375 h 15.023437 l 0.398438 -0.800781 l 0.402344 0.800781 h 27.203124 c -0.371093 -0.457031 -0.75 -0.90625 -1.136718 -1.34375 z m -31.847656 1.929687 c -0.347657 0.441407 -0.691407 0.886719 -1.023438 1.34375 h 25.316406 l 0.671875 -1.34375 z m 32.8125 0 l 0.671874 1.34375 h 13.09375 l 0.671876 -1.34375 z m 15.824218 0 l 0.671875 1.34375 h 27.730469 c -0.332031 -0.457031 -0.675781 -0.902343 -1.023438 -1.34375 z m -50.082031 1.925782 c -0.316406 0.441406 -0.625 0.890625 -0.925781 1.347656 h 25.699218 l 0.675782 -1.347656 z m 35.222656 0 l 0.671875 1.347656 h 11.164063 l 0.671875 -1.347656 z m 15.820313 0 l 0.675781 1.347656 h 28.113281 c -0.300781 -0.457031 -0.609375 -0.90625 -0.921875 -1.347656 z m -52.351563 1.929687 c -0.285156 0.441407 -0.558593 0.890625 -0.828125 1.34375 h 25.949219 l 0.671875 -1.34375 z m 37.496094 0 l 0.671875 1.34375 h 9.234375 l 0.671875 -1.34375 z m 15.820313 0 l 0.671874 1.34375 h 28.367188 c -0.269531 -0.453125 -0.546875 -0.902343 -0.832031 -1.34375 z m -54.488282 1.929688 c -0.257812 0.445312 -0.507812 0.890625 -0.75 1.34375 h 26.078125 l 0.671875 -1.34375 z m 39.632813 0 l 0.671875 1.34375 h 7.304687 l 0.671875 -1.34375 z m 15.820312 0 l 0.671875 1.34375 h 28.496094 c -0.246094 -0.453125 -0.492188 -0.898438 -0.75 -1.34375 z m -56.511719 1.929687 c -0.234374 0.445313 -0.457031 0.890625 -0.671874 1.34375 h 26.09375 l 0.671874 -1.34375 z m 41.65625 0 l 0.671876 1.34375 h 5.375 l 0.671874 -1.34375 z m 15.820313 0 l 0.671875 1.34375 h 28.511719 c -0.21875 -0.453125 -0.441407 -0.898437 -0.675781 -1.34375 z m -58.425781 1.933594 c -0.207032 0.441406 -0.40625 0.890625 -0.597656 1.339844 h 28.355468 l 0.191406 -0.378906 h -2.355468 l 0.480468 -0.960938 z m 43.570312 0 l 0.484375 0.960938 h -2.355469 l 0.1875 0.378906 h 5.800782 l 0.671875 -1.339844 z m 15.824219 0 l 0.667969 1.339844 h 28.417968 c -0.191406 -0.449219 -0.390624 -0.898438 -0.597656 -1.339844 z m -60.238281 1.925781 c -0.183594 0.445313 -0.359375 0.894531 -0.53125 1.34375 h 28.167968 l 0.671876 -1.34375 z m 43.023437 0 l 0.671875 1.34375 h 3.871094 l 0.671875 -1.34375 z m 18.175781 0 l 0.671876 1.34375 h 28.230468 c -0.171875 -0.449219 -0.347656 -0.898437 -0.53125 -1.34375 z m -61.945312 1.929688 c -0.164062 0.445312 -0.316406 0.894531 -0.464844 1.34375 h 27.882813 l 0.671875 -1.34375 z m 44.734375 0 l 0.671875 1.34375 h 1.941406 l 0.671875 -1.34375 z m 18.175781 0 l 0.671875 1.34375 h 27.949219 c -0.152344 -0.449219 -0.304688 -0.898438 -0.464844 -1.34375 z m -63.566406 1.929687 c -0.140625 0.445313 -0.277344 0.894532 -0.402344 1.34375 h 27.511719 l 0.671875 -1.34375 z m 46.355469 0 l 0.675781 1.34375 h 0.007812 l 0.671876 -1.34375 z m 18.175781 0 l 0.671875 1.34375 h 27.574219 c -0.128906 -0.449218 -0.261719 -0.898437 -0.402344 -1.34375 z m -65.097656 1.929688 c -0.121094 0.445312 -0.234375 0.894531 -0.34375 1.34375 h 27.054687 l 0.671875 -1.34375 z m 47.886718 0 l 0.675782 1.34375 h 0.433594 l 0.675781 -1.34375 z m 15.820313 0 l 0.671875 1.34375 h 29.472656 c -0.109375 -0.449219 -0.222656 -0.898438 -0.34375 -1.34375 z m -64.1875 1.929687 c -0.101563 0.445313 -0.195313 0.894531 -0.285156 1.34375 h 26.511719 l 0.671874 -1.34375 z m 65.152344 0 l 0.671875 1.34375 h 28.929687 c -0.089843 -0.449219 -0.183593 -0.898437 -0.285156 -1.34375 z m -65.546875 1.929688 c -0.085938 0.445312 -0.164063 0.894531 -0.230469 1.34375 h 29.144531 l 0.546875 -1.09375 h -3.257812 l 0.125 -0.25 z m 66.511718 0 l 0.671876 1.34375 h 28.304687 c -0.070313 -0.449219 -0.144531 -0.898438 -0.226563 -1.34375 z m -18.949218 0.25 l 0.464844 0.929687 l 0.460937 -0.929687 z m -47.878906 1.679687 c -0.066407 0.445313 -0.125 0.894532 -0.175782 1.34375 h 28.441406 l 0.671876 -1.34375 z m 67.792968 0 l 0.671875 1.34375 h 27.601563 c -0.050782 -0.449218 -0.109375 -0.898437 -0.171875 -1.34375 z m -68.03125 1.929688 c -0.046875 0.445312 -0.085937 0.894531 -0.117187 1.34375 h 27.65625 l 0.671875 -1.34375 z m 68.996094 0 l 0.671875 1.34375 h 26.820313 c -0.035157 -0.449219 -0.074219 -0.898438 -0.117188 -1.34375 z m -69.15625 1.929687 c -0.027344 0.445313 -0.050781 0.894531 -0.0625 1.34375 h 26.796875 l 0.671875 -1.34375 z m 70.121094 0 l 0.464844 0.929688 h -3.257813 l 0.210937 0.414062 h 29.214844 c -0.015625 -0.449219 -0.039062 -0.898437 -0.066406 -1.34375 z m -70.199219 1.929688 c -0.011719 0.359375 -0.015625 0.722656 -0.015625 1.082031 c 0 0.085938 0 0.171875 0.003906 0.261719 h 25.859375 l 0.671875 -1.34375 z m 67.90625 0 l 0.671875 1.34375 h 28.28125 c 0 -0.089844 0 -0.175781 0 -0.261719 c 0 -0.359375 -0.003906 -0.722656 -0.011719 -1.082031 z m -67.914063 1.929687 c 0.007813 0.445313 0.019532 0.894532 0.042969 1.34375 h 24.847657 l 0.671874 -1.34375 z m 68.878907 0 l 0.671875 1.34375 h 27.269531 c 0.019531 -0.449218 0.03125 -0.898437 0.039063 -1.34375 z m -68.804688 1.925782 c 0.023438 0.449218 0.054688 0.898437 0.09375 1.347656 h 36.421875 v -0.003906 h -12.660156 l 0.671875 -1.34375 z m 69.769531 0 l 0.671876 1.347656 h 26.175781 c 0.039062 -0.449219 0.070312 -0.898438 0.09375 -1.347656 z m -27.808593 1.34375 v 0.003906 h 4.179687 v -0.003906 z m -41.8125 0.585937 c 0.042969 0.449219 0.09375 0.898437 0.152343 1.34375 h 36.214844 v -1.34375 z m 41.8125 0 v 1.34375 h 3.214843 l 0.671876 -1.34375 z m 28.773437 0 l 0.671875 1.34375 h 25.007813 c 0.054687 -0.445313 0.105468 -0.894531 0.152344 -1.34375 z m -70.359375 1.929687 c 0.0625 0.449219 0.128907 0.898438 0.207031 1.34375 h 35.933594 v -1.34375 z m 41.585938 0 v 1.34375 h 2.25 l 0.671875 -1.34375 z m 29.738281 0 l 0.671875 1.34375 h 23.761719 c 0.074218 -0.445312 0.140625 -0.894531 0.203125 -1.34375 z m -71.015625 1.933594 c 0.078125 0.449219 0.167969 0.675782 0.261719 1.121094 h 35.570312 v -1.121094 z m 41.277344 0 v 1.121094 h 1.394531 l 0.5625 -1.121094 z m 30.703125 0 l 0.5625 1.121094 h 22.542968 c 0.089844 -0.445312 0.179688 -0.671875 0.261719 -1.121094 z m -71.59375 1.929688 c 0.097656 0.449218 0.203125 0.894531 0.316406 1.34375 h 35.128906 v -1.34375 z m 40.890625 0 v 1.34375 h 13.605469 v -1.257813 h -12.660157 l 0.046875 -0.085937 z m 31.667969 0 l 0.046874 0.085937 h -12.664062 v 1.257813 h 34.3125 c 0.113281 -0.449219 0.21875 -0.894532 0.320312 -1.34375 z m -72.089844 1.925781 c 0.121094 0.449219 0.246094 0.898437 0.378906 1.347656 h 34.597656 v -1.347656 z m 40.421875 0 v 1.347656 h 13.605469 v -1.347656 z m 19.050781 0 v 1.347656 h 33.785156 c 0.128906 -0.449219 0.253906 -0.898437 0.375 -1.347656 z m -58.917969 1.929687 c 6.289063 20.269532 25.039063 34.085938 46.261719 34.085938 s 39.972656 -13.816406 46.261719 -34.085938 h -33.605469 v 13.082032 c 0 0.601562 -0.484375 1.085937 -1.085938 1.085937 h -3.269531 c -0.601562 0 -1.089843 -0.484375 -1.089843 -1.085937 v -13.082032 h -13.605469 v 6.617188 c 0 0.601562 -0.488281 1.085938 -1.089844 1.085938 h -3.265625 c -0.605469 0 -1.089844 -0.484376 -1.089844 -1.085938 v -6.617188 z m 0 0" fill="url(#a)"/>
    <path d="m 4.570312 74.082031 h 118.859376 c 2.523437 0 4.570312 2.292969 4.570312 5.121094 v 43.519531 c 0 2.828125 -2.046875 5.121094 -4.570312 5.121094 h -118.859376 c -2.523437 0 -4.570312 -2.292969 -4.570312 -5.121094 v -43.519531 c 0 -2.828125 2.046875 -5.121094 4.570312 -5.121094 z m 0 0" fill="url(#b)"/>
    <path d="m 4.570312 71.25 h 118.859376 c 2.523437 0 4.570312 2.292969 4.570312 5.121094 v 40.957031 c 0 2.828125 -2.046875 5.121094 -4.570312 5.121094 h -118.859376 c -2.523437 0 -4.570312 -2.292969 -4.570312 -5.121094 v -40.957031 c 0 -2.828125 2.046875 -5.121094 4.570312 -5.121094 z m 0 0" fill="#241f31"/>
    <path d="m 6.398438 76.742188 h 10.242187 c 0.707031 0 1.28125 0.570312 1.28125 1.277343 v 2.5625 c 0 0.707031 -0.574219 1.277344 -1.28125 1.277344 h -10.242187 c -0.707032 0 -1.277344 -0.570313 -1.277344 -1.277344 v -2.5625 c 0 -0.707031 0.570312 -1.277343 1.277344 -1.277343 z m 0 0"/>
    <path d="m 6.398438 76.371094 h 10.242187 c 0.707031 0 1.28125 0.570312 1.28125 1.277344 v 2.5625 c 0 0.707031 -0.574219 1.277343 -1.28125 1.277343 h -10.242187 c -0.707032 0 -1.277344 -0.570312 -1.277344 -1.277343 v -2.5625 c 0 -0.707032 0.570312 -1.277344 1.277344 -1.277344 z m 0 0" fill="#3d3846"/>
    <path d="m 6.398438 84.421875 h 10.242187 c 0.707031 0 1.28125 0.570313 1.28125 1.277344 v 2.5625 c 0 0.707031 -0.574219 1.277343 -1.28125 1.277343 h -10.242187 c -0.707032 0 -1.277344 -0.570312 -1.277344 -1.277343 v -2.5625 c 0 -0.707031 0.570312 -1.277344 1.277344 -1.277344 z m 0 0"/>
    <path d="m 6.398438 84.050781 h 10.242187 c 0.707031 0 1.28125 0.570313 1.28125 1.277344 v 2.5625 c 0 0.707031 -0.574219 1.28125 -1.28125 1.28125 h -10.242187 c -0.707032 0 -1.277344 -0.574219 -1.277344 -1.28125 v -2.5625 c 0 -0.707031 0.570312 -1.277344 1.277344 -1.277344 z m 0 0" fill="#3d3846"/>
    <path d="m 6.398438 92.101562 h 10.242187 c 0.707031 0 1.28125 0.570313 1.28125 1.28125 v 2.558594 c 0 0.707032 -0.574219 1.28125 -1.28125 1.28125 h -10.242187 c -0.707032 0 -1.277344 -0.574218 -1.277344 -1.28125 v -2.558594 c 0 -0.710937 0.570312 -1.28125 1.277344 -1.28125 z m 0 0"/>
    <path d="m 6.398438 91.730469 h 10.242187 c 0.707031 0 1.28125 0.570312 1.28125 1.28125 v 2.558593 c 0 0.707032 -0.574219 1.28125 -1.28125 1.28125 h -10.242187 c -0.707032 0 -1.277344 -0.574218 -1.277344 -1.28125 v -2.558593 c 0 -0.710938 0.570312 -1.28125 1.277344 -1.28125 z m 0 0" fill="#3d3846"/>
    <path d="m 37.121094 76.371094 h 58.878906 c 0.710938 0 1.28125 0.570312 1.28125 1.277344 v 33.28125 c 0 0.710937 -0.570312 1.28125 -1.28125 1.28125 h -58.878906 c -0.710938 0 -1.28125 -0.570313 -1.28125 -1.28125 v -33.28125 c 0 -0.707032 0.570312 -1.277344 1.28125 -1.277344 z m 0 0" fill="#9a9996"/>
    <path d="m 37.121094 77.011719 h 58.878906 c 0.710938 0 1.28125 0.558593 1.28125 1.253906 v 32.6875 c 0 0.695313 -0.570312 1.257813 -1.28125 1.257813 h -58.878906 c -0.710938 0 -1.28125 -0.5625 -1.28125 -1.257813 v -32.6875 c 0 -0.695313 0.570312 -1.253906 1.28125 -1.253906 z m 0 0" fill-opacity="0.733333"/>
    <path d="m 125.027344 106.90625 c 0 7.070312 -5.730469 12.800781 -12.796875 12.800781 c -7.070313 0 -12.800781 -5.730469 -12.800781 -12.800781 c 0 -7.066406 5.730468 -12.800781 12.800781 -12.800781 c 7.066406 0 12.796875 5.734375 12.796875 12.800781 z m 0 0" fill="url(#c)"/>
    <path d="m 125.027344 105.191406 c 0 7.070313 -5.730469 12.800782 -12.796875 12.800782 c -7.070313 0 -12.800781 -5.730469 -12.800781 -12.800782 c 0 -7.066406 5.730468 -12.796875 12.800781 -12.796875 c 7.066406 0 12.796875 5.730469 12.796875 12.796875 z m 0 0" fill="#3d3846"/>
    <path d="m 120.320312 112.210938 c 0 1.414062 -1.144531 2.558593 -2.558593 2.558593 c -1.414063 0 -2.5625 -1.144531 -2.5625 -2.558593 c 0 -1.414063 1.148437 -2.5625 2.5625 -2.5625 c 1.414062 0 2.558593 1.148437 2.558593 2.5625 z m 0 0" fill="#9a9996"/>
    <path d="m 120.308594 112.28125 c 0 1.402344 -1.136719 2.539062 -2.539063 2.539062 c -1.398437 0 -2.535156 -1.136718 -2.535156 -2.539062 s 1.136719 -2.535156 2.535156 -2.535156 c 1.402344 0 2.539063 1.132812 2.539063 2.535156 z m 0 0"/>
    <path d="m 6.398438 99.78125 h 10.242187 c 0.707031 0 1.28125 0.570312 1.28125 1.28125 v 2.558594 c 0 0.707031 -0.574219 1.28125 -1.28125 1.28125 h -10.242187 c -0.707032 0 -1.277344 -0.574219 -1.277344 -1.28125 v -2.558594 c 0 -0.710938 0.570312 -1.28125 1.277344 -1.28125 z m 0 0"/>
    <path d="m 6.398438 99.410156 h 10.242187 c 0.707031 0 1.28125 0.570313 1.28125 1.28125 v 2.558594 c 0 0.710938 -0.574219 1.28125 -1.28125 1.28125 h -10.242187 c -0.707032 0 -1.277344 -0.570312 -1.277344 -1.28125 v -2.558594 c 0 -0.710937 0.570312 -1.28125 1.277344 -1.28125 z m 0 0" fill="#3d3846"/>
    <path d="m 38.398438 114.476562 h 10.242187 c 0.707031 0 1.28125 0.574219 1.28125 1.28125 v 2.558594 c 0 0.710938 -0.574219 1.28125 -1.28125 1.28125 h -10.242187 c -0.707032 0 -1.277344 -0.570312 -1.277344 -1.28125 v -2.558594 c 0 -0.707031 0.570312 -1.28125 1.277344 -1.28125 z m 0 0"/>
    <path d="m 38.398438 114.105469 h 10.242187 c 0.707031 0 1.28125 0.574219 1.28125 1.28125 v 2.558593 c 0 0.710938 -0.574219 1.28125 -1.28125 1.28125 h -10.242187 c -0.707032 0 -1.277344 -0.570312 -1.277344 -1.28125 v -2.558593 c 0 -0.707031 0.570312 -1.28125 1.277344 -1.28125 z m 0 0" fill="#3d3846"/>
    <path d="m 53.761719 114.476562 h 10.238281 c 0.710938 0 1.28125 0.574219 1.28125 1.28125 v 2.558594 c 0 0.710938 -0.570312 1.28125 -1.28125 1.28125 h -10.238281 c -0.710938 0 -1.28125 -0.570312 -1.28125 -1.28125 v -2.558594 c 0 -0.707031 0.570312 -1.28125 1.28125 -1.28125 z m 0 0"/>
    <path d="m 53.761719 114.105469 h 10.238281 c 0.710938 0 1.28125 0.574219 1.28125 1.28125 v 2.558593 c 0 0.710938 -0.570312 1.28125 -1.28125 1.28125 h -10.238281 c -0.710938 0 -1.28125 -0.570312 -1.28125 -1.28125 v -2.558593 c 0 -0.707031 0.570312 -1.28125 1.28125 -1.28125 z m 0 0" fill="#3d3846"/>
    <path d="m 69.121094 114.476562 h 10.238281 c 0.710937 0 1.28125 0.574219 1.28125 1.28125 v 2.558594 c 0 0.710938 -0.570313 1.28125 -1.28125 1.28125 h -10.238281 c -0.710938 0 -1.28125 -0.570312 -1.28125 -1.28125 v -2.558594 c 0 -0.707031 0.570312 -1.28125 1.28125 -1.28125 z m 0 0"/>
    <path d="m 69.121094 114.105469 h 10.238281 c 0.710937 0 1.28125 0.574219 1.28125 1.28125 v 2.558593 c 0 0.710938 -0.570313 1.28125 -1.28125 1.28125 h -10.238281 c -0.710938 0 -1.28125 -0.570312 -1.28125 -1.28125 v -2.558593 c 0 -0.707031 0.570312 -1.28125 1.28125 -1.28125 z m 0 0" fill="#3d3846"/>
    <path d="m 84.480469 114.476562 h 10.238281 c 0.710938 0 1.28125 0.574219 1.28125 1.28125 v 2.558594 c 0 0.710938 -0.570312 1.28125 -1.28125 1.28125 h -10.238281 c -0.710938 0 -1.28125 -0.570312 -1.28125 -1.28125 v -2.558594 c 0 -0.707031 0.570312 -1.28125 1.28125 -1.28125 z m 0 0"/>
    <path d="m 84.480469 114.105469 h 10.238281 c 0.710938 0 1.28125 0.574219 1.28125 1.28125 v 2.558593 c 0 0.710938 -0.570312 1.28125 -1.28125 1.28125 h -10.238281 c -0.710938 0 -1.28125 -0.570312 -1.28125 -1.28125 v -2.558593 c 0 -0.707031 0.570312 -1.28125 1.28125 -1.28125 z m 0 0" fill="#3d3846"/>
    <path d="m 33.097656 107.796875 c 0 2.828125 -2.292968 5.121094 -5.121094 5.121094 c -2.828124 0 -5.121093 -2.292969 -5.121093 -5.121094 c 0 -2.824219 2.292969 -5.117187 5.121093 -5.117187 c 2.828126 0 5.121094 2.292968 5.121094 5.117187 z m 0 0" fill-opacity="0.733333"/>
    <path d="m 16.527344 113.511719 c 0 2.828125 -2.292969 5.121093 -5.121094 5.121093 s -5.121094 -2.292968 -5.121094 -5.121093 s 2.292969 -5.117188 5.121094 -5.117188 s 5.121094 2.289063 5.121094 5.117188 z m 0 0" fill-opacity="0.733333"/>
    <path d="m 33.097656 81.511719 c 0 2.828125 -2.292968 5.121093 -5.121094 5.121093 c -2.828124 0 -5.121093 -2.292968 -5.121093 -5.121093 s 2.292969 -5.117188 5.121093 -5.117188 c 2.828126 0 5.121094 2.289063 5.121094 5.117188 z m 0 0" fill-opacity="0.733333"/>
    <path d="m 32.136719 81.511719 c 0 2.296875 -1.863281 4.160156 -4.160157 4.160156 c -2.296874 0 -4.160156 -1.863281 -4.160156 -4.160156 s 1.863282 -4.160157 4.160156 -4.160157 c 2.296876 0 4.160157 1.863282 4.160157 4.160157 z m 0 0" fill="#3d3846"/>
    <path d="m 109.667969 81.511719 c 0 2.828125 -2.292969 5.121093 -5.121094 5.121093 c -2.824219 0 -5.117187 -2.292968 -5.117187 -5.121093 s 2.292968 -5.117188 5.117187 -5.117188 c 2.828125 0 5.121094 2.289063 5.121094 5.117188 z m 0 0" fill-opacity="0.733333"/>
    <path d="m 108.707031 81.511719 c 0 2.296875 -1.859375 4.160156 -4.160156 4.160156 c -2.296875 0 -4.160156 -1.863281 -4.160156 -4.160156 s 1.863281 -4.160157 4.160156 -4.160157 c 2.300781 0 4.160156 1.863282 4.160156 4.160157 z m 0 0" fill="#3d3846"/>
    <path d="m 32.136719 107.796875 c 0 2.300781 -1.863281 4.160156 -4.160157 4.160156 c -2.296874 0 -4.160156 -1.859375 -4.160156 -4.160156 c 0 -2.296875 1.863282 -4.160156 4.160156 -4.160156 c 2.296876 0 4.160157 1.863281 4.160157 4.160156 z m 0 0" fill="#3d3846"/>
    <path d="m 37.085938 96.964844 h 58.878906 c 0.710937 0 1.28125 0.574218 1.28125 1.28125 v 12.800781 c 0 0.707031 -0.570313 1.28125 -1.28125 1.28125 h -58.878906 c -0.707032 0 -1.28125 -0.574219 -1.28125 -1.28125 v -12.800781 c 0 -0.707032 0.574218 -1.28125 1.28125 -1.28125 z m 0 0" fill="#1a5fb4"/>
    <path d="m 100.070312 93.011719 h 2.558594 c 0.351563 0 0.640625 0.285156 0.640625 0.636719 c 0 0.355468 -0.289062 0.640624 -0.640625 0.640624 h -2.558594 c -0.355468 0 -0.640624 -0.285156 -0.640624 -0.640624 c 0 -0.351563 0.285156 -0.636719 0.640624 -0.636719 z m 0 0" fill="#f8e45c"/>
    <path d="m 35.839844 96.210938 h 61.441406 v 10.238281 h -61.441406 z m 0 0" fill="#1a5fb4"/>
    <path d="m 35.839844 96.210938 h 61.441406 v 0.320312 h -61.441406 z m 0 0" fill="#f9f06b"/>
    <g fill="#ffffff">
        <path d="m 49.144531 80.980469 h 8 v 6.855469 h -8 z m 0 0" fill-opacity="0.2"/>
        <path d="m 60.621094 80.964844 h 10.285156 v 6.855468 h -10.285156 z m 0 0" fill-opacity="0.2"/>
        <path d="m 74.289062 81.058594 h 8.132813 v 6.855468 h -8.132813 z m 0 0" fill-opacity="0.2"/>
        <path d="m 72 86.679688 h 1.132812 v 1.140624 h -1.132812 z m 0 0" fill-opacity="0.4"/>
        <path d="m 58.285156 86.679688 h 1.132813 v 1.140624 h -1.132813 z m 0 0" fill-opacity="0.4"/>
    </g>
</svg>
